<svg width="44" height="44" viewBox="0 0 44 44" fill="none" xmlns="http://www.w3.org/2000/svg">
<rect width="44" height="44" rx="22" fill="#F4F2F2"/>
<g clip-path="url(#clip0_4027_8398)">
<path d="M34 22C34 15.3726 28.6274 10 22 10C15.3726 10 10 15.3726 10 22C10 27.9895 14.3882 32.954 20.125 33.8542V25.4688H17.0781V22H20.125V19.3563C20.125 16.3488 21.9166 14.6875 24.6576 14.6875C25.9705 14.6875 27.3438 14.9219 27.3438 14.9219V17.875H25.8306C24.3399 17.875 23.875 18.8 23.875 19.7491V22H27.2031L26.6711 25.4688H23.875V33.8542C29.6117 32.954 34 27.9896 34 22Z" fill="#1877F2"/>
<path d="M26.6711 25.4688L27.2031 22H23.875V19.7491C23.875 18.7999 24.3399 17.875 25.8306 17.875H27.3438V14.9219C27.3438 14.9219 25.9705 14.6875 24.6575 14.6875C21.9166 14.6875 20.125 16.3488 20.125 19.3563V22H17.0781V25.4688H20.125V33.8542C20.7453 33.9514 21.3722 34.0001 22 34C22.6278 34.0001 23.2547 33.9514 23.875 33.8542V25.4688H26.6711Z" fill="white"/>
</g>
<defs>
<clipPath id="clip0_4027_8398">
<rect width="24" height="24" fill="white" transform="translate(10 10)"/>
</clipPath>
</defs>
</svg>
