<svg width="32" height="32" viewBox="0 0 32 32" fill="none" xmlns="http://www.w3.org/2000/svg">
  <rect width="32" height="32" rx="8" fill="#16a34a" />
  
  <path d="M4 10H11C11.5 10 12 10.1 12.5 10.3C11.5 11.5 11 13 11 14.5C11 15.5 11.2 16.5 11.6 17.5L11.7 17.6C11.8 17.6 11.8 17.6 11.9 17.7C12.3 18.5 12.8 19.3 13.5 20C14 21 14.5 22.5 14.8 23.5C15.2 24.8 15.5 26 15.7 27C15.8 27.5 15.9 27.8 16 28C16.1 28.2 16.2 28.3 16.2 28.3C16.3 28.4 16.3 28.4 16.3 28.4C16.3 28.4 16.3 28.4 16.3 28.4C16.3 28.4 16.3 28.3 16.3 28.3C16.3 28.2 16.3 28.1 16.3 28C16.3 27.8 16.2 27.5 16.2 27.2C16.1 26.5 16 25.5 15.8 24.5C15.5 23 15.2 21.5 15 20C14.8 19.2 14.7 18.5 14.6 17.8C14.5 17.2 14.4 16.8 14.4 16.5C14.4 13.5 16.5 11 19.5 11H27V7L19.5 7C17.5 7 15.5 7.5 14 8.5C12.5 7.5 10.5 7 8.5 7L4 7V10Z" fill="white"/>
</svg>