<svg width="44" height="44" viewBox="0 0 44 44" fill="none" xmlns="http://www.w3.org/2000/svg">
<rect width="44" height="44" rx="22" fill="#F4F2F2"/>
<g clip-path="url(#clip0_4027_8407)">
<path d="M28.375 10H15.625C12.5184 10 10 12.5184 10 15.625V28.375C10 31.4816 12.5184 34 15.625 34H28.375C31.4816 34 34 31.4816 34 28.375V15.625C34 12.5184 31.4816 10 28.375 10Z" fill="url(#paint0_radial_4027_8407)"/>
<path d="M28.375 10H15.625C12.5184 10 10 12.5184 10 15.625V28.375C10 31.4816 12.5184 34 15.625 34H28.375C31.4816 34 34 31.4816 34 28.375V15.625C34 12.5184 31.4816 10 28.375 10Z" fill="url(#paint1_radial_4027_8407)"/>
<path d="M22.0008 12.625C19.4548 12.625 19.1352 12.6362 18.1353 12.6816C17.1372 12.7274 16.4559 12.8853 15.8598 13.1172C15.2432 13.3566 14.7201 13.677 14.1991 14.1982C13.6775 14.7194 13.3572 15.2424 13.117 15.8588C12.8845 16.4551 12.7263 17.1366 12.6814 18.1342C12.6367 19.1342 12.625 19.4539 12.625 22.0001C12.625 24.5463 12.6363 24.8648 12.6816 25.8647C12.7276 26.8628 12.8855 27.5441 13.1172 28.1402C13.3568 28.7568 13.6772 29.2799 14.1984 29.8009C14.7194 30.3225 15.2424 30.6436 15.8586 30.883C16.4552 31.1148 17.1365 31.2728 18.1344 31.3186C19.1344 31.364 19.4538 31.3752 21.9997 31.3752C24.5461 31.3752 24.8646 31.364 25.8646 31.3186C26.8626 31.2728 27.5447 31.1148 28.1412 30.883C28.7576 30.6436 29.2799 30.3225 29.8007 29.8009C30.3223 29.2799 30.6425 28.7568 30.8828 28.1404C31.1133 27.5441 31.2715 26.8626 31.3184 25.8649C31.3633 24.865 31.375 24.5463 31.375 22.0001C31.375 19.4539 31.3633 19.1344 31.3184 18.1344C31.2715 17.1363 31.1133 16.4552 30.8828 15.8591C30.6425 15.2424 30.3223 14.7194 29.8007 14.1982C29.2793 13.6768 28.7578 13.3564 28.1406 13.1173C27.543 12.8853 26.8613 12.7273 25.8632 12.6816C24.8632 12.6362 24.5448 12.625 21.9979 12.625H22.0008ZM21.1598 14.3145C21.4095 14.3141 21.688 14.3145 22.0008 14.3145C24.5041 14.3145 24.8007 14.3235 25.7892 14.3684C26.7032 14.4102 27.1994 14.5629 27.5298 14.6913C27.9674 14.8611 28.2793 15.0643 28.6072 15.3925C28.9353 15.7206 29.1384 16.0331 29.3088 16.4706C29.4371 16.8006 29.59 17.2968 29.6316 18.2108C29.6765 19.1991 29.6863 19.4959 29.6863 21.9979C29.6863 24.4999 29.6765 24.7968 29.6316 25.7851C29.5898 26.6991 29.4371 27.1952 29.3088 27.5253C29.1389 27.9629 28.9353 28.2744 28.6072 28.6023C28.2791 28.9305 27.9676 29.1335 27.5298 29.3035C27.1997 29.4324 26.7032 29.5848 25.7892 29.6266C24.8009 29.6715 24.5041 29.6812 22.0008 29.6812C19.4975 29.6812 19.2008 29.6715 18.2126 29.6266C17.2985 29.5844 16.8024 29.4317 16.4717 29.3033C16.0342 29.1333 15.7217 28.9303 15.3935 28.6022C15.0654 28.274 14.8623 27.9623 14.692 27.5246C14.5637 27.1945 14.4108 26.6984 14.3691 25.7843C14.3242 24.796 14.3152 24.4992 14.3152 21.9956C14.3152 19.492 14.3242 19.1968 14.3691 18.2085C14.4109 17.2944 14.5637 16.7983 14.692 16.4678C14.862 16.0303 15.0654 15.7178 15.3936 15.3897C15.7218 15.0616 16.0342 14.8584 16.4717 14.6882C16.8022 14.5592 17.2985 14.4069 18.2126 14.3649C19.0774 14.3258 19.4126 14.3141 21.1598 14.3121V14.3145ZM27.0052 15.8711C26.3841 15.8711 25.8802 16.3745 25.8802 16.9957C25.8802 17.6168 26.3841 18.1207 27.0052 18.1207C27.6263 18.1207 28.1302 17.6168 28.1302 16.9957C28.1302 16.3746 27.6263 15.8707 27.0052 15.8707V15.8711ZM22.0008 17.1856C19.3421 17.1856 17.1864 19.3413 17.1864 22.0001C17.1864 24.6589 19.3421 26.8136 22.0008 26.8136C24.6597 26.8136 26.8146 24.6589 26.8146 22.0001C26.8146 19.3413 24.6595 17.1856 22.0007 17.1856H22.0008ZM22.0008 18.875C23.7267 18.875 25.1259 20.2741 25.1259 22.0001C25.1259 23.7259 23.7267 25.1252 22.0008 25.1252C20.275 25.1252 18.8759 23.7259 18.8759 22.0001C18.8759 20.2741 20.2749 18.875 22.0008 18.875Z" fill="white"/>
</g>
<defs>
<radialGradient id="paint0_radial_4027_8407" cx="0" cy="0" r="1" gradientUnits="userSpaceOnUse" gradientTransform="translate(16.375 35.8485) rotate(-90) scale(23.7858 22.1227)">
<stop stop-color="#FFDD55"/>
<stop offset="0.1" stop-color="#FFDD55"/>
<stop offset="0.5" stop-color="#FF543E"/>
<stop offset="1" stop-color="#C837AB"/>
</radialGradient>
<radialGradient id="paint1_radial_4027_8407" cx="0" cy="0" r="1" gradientUnits="userSpaceOnUse" gradientTransform="translate(5.97991 11.7288) rotate(78.681) scale(10.6324 43.827)">
<stop stop-color="#3771C8"/>
<stop offset="0.128" stop-color="#3771C8"/>
<stop offset="1" stop-color="#6600FF" stop-opacity="0"/>
</radialGradient>
<clipPath id="clip0_4027_8407">
<rect width="24" height="24" fill="white" transform="translate(10 10)"/>
</clipPath>
</defs>
</svg>
