<svg width="44" height="44" viewBox="0 0 44 44" fill="none" xmlns="http://www.w3.org/2000/svg">
<rect width="44" height="44" rx="22" fill="#F4F2F2"/>
<g clip-path="url(#clip0_4027_8401)">
<path d="M28.375 10H15.625C12.5184 10 10 12.5184 10 15.625V28.375C10 31.4816 12.5184 34 15.625 34H28.375C31.4816 34 34 31.4816 34 28.375V15.625C34 12.5184 31.4816 10 28.375 10Z" fill="white"/>
<path d="M28.375 10H15.625C12.5184 10 10 12.5184 10 15.625V28.375C10 31.4816 12.5184 34 15.625 34H28.375C31.4816 34 34 31.4816 34 28.375V15.625C34 12.5184 31.4816 10 28.375 10Z" fill="#0A66C2"/>
<path d="M27.317 30.408H30.0611C30.1605 30.408 30.2559 30.3685 30.3262 30.2982C30.3965 30.2279 30.4361 30.1325 30.4361 30.0331L30.4375 24.2354C30.4375 21.2051 29.7845 18.8759 26.2433 18.8759C24.8972 18.8258 23.6277 19.5198 22.9427 20.6785C22.9393 20.6841 22.9342 20.6885 22.9281 20.691C22.9221 20.6934 22.9154 20.6938 22.909 20.6921C22.9027 20.6904 22.8971 20.6867 22.8931 20.6815C22.8891 20.6763 22.8869 20.67 22.8869 20.6634V19.5306C22.8869 19.4312 22.8474 19.3358 22.777 19.2655C22.7067 19.1951 22.6113 19.1556 22.5119 19.1556H19.9078C19.8083 19.1556 19.7129 19.1951 19.6426 19.2655C19.5723 19.3358 19.5328 19.4312 19.5328 19.5306V30.0325C19.5328 30.132 19.5723 30.2273 19.6426 30.2977C19.7129 30.368 19.8083 30.4075 19.9078 30.4075H22.6517C22.7511 30.4075 22.8465 30.368 22.9168 30.2977C22.9871 30.2273 23.0267 30.132 23.0267 30.0325V24.8413C23.0267 23.3734 23.3051 21.9519 25.1249 21.9519C26.9188 21.9519 26.942 23.6315 26.942 24.9363V30.033C26.942 30.1324 26.9815 30.2278 27.0519 30.2981C27.1222 30.3685 27.2176 30.408 27.317 30.408ZM13.5625 15.5901C13.5625 16.7024 14.4782 17.6176 15.5905 17.6176C16.7026 17.6175 17.6177 16.7017 17.6177 15.5897C17.6175 14.4776 16.7023 13.5625 15.5901 13.5625C14.4777 13.5625 13.5625 14.4779 13.5625 15.5901ZM14.2149 30.408H16.9624C17.0619 30.408 17.1573 30.3685 17.2276 30.2981C17.2979 30.2278 17.3374 30.1324 17.3374 30.033V19.5306C17.3374 19.4312 17.2979 19.3358 17.2276 19.2655C17.1573 19.1951 17.0619 19.1556 16.9624 19.1556H14.2149C14.1155 19.1556 14.0201 19.1951 13.9497 19.2655C13.8794 19.3358 13.8399 19.4312 13.8399 19.5306V30.033C13.8399 30.1324 13.8794 30.2278 13.9497 30.2981C14.0201 30.3685 14.1155 30.408 14.2149 30.408Z" fill="white"/>
</g>
<defs>
<clipPath id="clip0_4027_8401">
<rect width="24" height="24" fill="white" transform="translate(10 10)"/>
</clipPath>
</defs>
</svg>
