<svg width="41" height="37" viewBox="0 0 41 37" fill="none" xmlns="http://www.w3.org/2000/svg">
<rect width="40.92" height="37" rx="18.5" fill="#F4F2F2"/>
<path d="M30.92 12C30.15 12.35 29.32 12.58 28.46 12.69C29.34 12.16 30.02 11.32 30.34 10.31C29.51 10.81 28.59 11.16 27.62 11.36C26.83 10.5 25.72 10 24.46 10C22.11 10 20.19 11.92 20.19 14.29C20.19 14.63 20.23 14.96 20.3 15.27C16.74 15.09 13.57 13.38 11.46 10.79C11.09 11.42 10.88 12.16 10.88 12.94C10.88 14.43 11.63 15.75 12.79 16.5C12.08 16.5 11.42 16.3 10.84 16V16.03C10.84 18.11 12.32 19.85 14.28 20.24C13.6508 20.4129 12.99 20.4369 12.35 20.31C12.6216 21.1625 13.1535 21.9084 13.871 22.4429C14.5885 22.9775 15.4554 23.2737 16.35 23.29C14.8337 24.4905 12.954 25.1394 11.02 25.13C10.68 25.13 10.34 25.11 10 25.07C11.9 26.29 14.16 27 16.58 27C24.46 27 28.79 20.46 28.79 14.79C28.79 14.6 28.79 14.42 28.78 14.23C29.62 13.63 30.34 12.87 30.92 12Z" fill="black"/>
</svg>
